<?xml version="1.0" encoding="UTF-8" standalone="no"?><!DOCTYPE svg PUBLIC "-//W3C//DTD SVG 1.1//EN" "http://www.w3.org/Graphics/SVG/1.1/DTD/svg11.dtd"><svg width="100%" height="100%" viewBox="0 0 460 460" version="1.1" xmlns="http://www.w3.org/2000/svg" xmlns:xlink="http://www.w3.org/1999/xlink" xml:space="preserve" xmlns:serif="http://www.serif.com/" style="fill-rule:evenodd;clip-rule:evenodd;stroke-linejoin:round;stroke-miterlimit:2;"><g><path d="M289.514,7.892c122.666,32.868 195.463,158.956 162.594,281.622c-32.868,122.666 -158.956,195.463 -281.622,162.594c-122.666,-32.868 -195.463,-158.956 -162.594,-281.622c32.868,-122.666 158.956,-195.463 281.622,-162.594Zm38.055,178.089l52.884,0l0,-58.623l-52.884,0l0,58.623Zm-24.594,169.38c1.692,-1.619 3.944,-2.523 6.287,-2.523c6.5,-0.006 18.308,-0.006 18.308,-0.006l0,-166.851l-30.16,0l0,-58.623l-52.884,0l0,27.587c-0,2.604 -1.768,4.876 -4.292,5.518c-0.537,0.093 -1.059,0.252 -1.574,0.442c0,0 -8.919,3.273 -15.745,5.778c-1.747,0.641 -3.696,0.388 -5.221,-0.677c-1.525,-1.065 -2.434,-2.808 -2.434,-4.669c0,-12.249 0,-33.98 0,-33.98l-7.867,0c-1.907,-0 -3.686,-0.954 -4.742,-2.542c-1.586,-2.374 -4.106,-5.694 -6.278,-6.697c-3.457,-1.595 -7.406,-1.752 -10.978,-0.435c0,0 -30.628,11.279 -45.302,16.683c-1.747,0.643 -3.698,0.392 -5.225,-0.673c-1.527,-1.065 -2.437,-2.809 -2.437,-4.67c-0,-0.993 -0,-1.665 -0,-1.665l-22.191,0c-2.744,0 -5.098,-1.957 -5.598,-4.655c-0.501,-2.698 0.995,-5.369 3.556,-6.354c37.922,-14.572 100.042,-38.441 100.042,-38.441c3.575,-1.315 6.478,-3.995 8.073,-7.452c1.597,-3.457 1.754,-7.406 0.437,-10.979l-0.213,-0.628c-1.316,-3.574 -3.997,-6.478 -7.451,-8.074c-3.458,-1.596 -7.408,-1.753 -10.981,-0.434l-17.644,6.509c-7.833,2.871 -16.513,-1.136 -19.405,-8.962c-1.992,-5.442 -6.927,-9.265 -12.697,-9.828c-98.864,42.189 -148.969,153.042 -115.319,255.128c33.65,102.086 139.852,161.415 244.426,136.548c6.064,-3.453 8.766,-10.764 6.405,-17.328l-0.213,-0.628c-1.315,-3.575 -3.995,-6.479 -7.452,-8.076c-3.456,-1.596 -7.406,-1.753 -10.978,-0.435l-54.238,19.937c-3.573,1.318 -7.522,1.161 -10.979,-0.434c-3.457,-1.597 -6.138,-4.501 -7.452,-8.076l-0.309,-0.796l0.021,0.101c-1.324,-3.568 -1.174,-7.516 0.412,-10.974c1.588,-3.459 4.487,-6.145 8.054,-7.468l97.477,-37.204c1.826,-0.696 3.429,-1.725 4.764,-2.991Zm-218.972,-169.029c0.63,-0.232 1.296,-0.351 1.968,-0.351c6.885,0 46.461,0 46.461,0l0,-13.517c0,-2.386 1.487,-4.518 3.726,-5.343c4.619,-1.701 12.608,-4.644 18.556,-6.835c1.747,-0.643 3.698,-0.392 5.225,0.673c1.527,1.065 2.437,2.809 2.437,4.671c0,4.689 0,10.46 0,14.658c-0,3.145 -2.549,5.694 -5.694,5.694c-8.686,0 -24.25,0 -24.25,0l0,9.932c0,2.388 -1.49,4.523 -3.732,5.345c-14.515,5.327 -66.405,24.369 -66.405,24.369c-3.573,1.318 -7.523,1.161 -10.978,-0.435c-3.456,-1.596 -6.137,-4.5 -7.451,-8.074l-0.213,-0.628c-1.316,-3.573 -1.159,-7.522 0.434,-10.979c1.597,-3.458 4.502,-6.139 8.076,-7.451c0,0 26.448,-9.742 31.84,-11.728Zm40.77,48.643c1.747,-0.642 3.697,-0.39 5.223,0.675c1.526,1.065 2.436,2.808 2.436,4.669l0,18.285c0,1.609 -0.68,3.143 -1.873,4.222c-1.193,1.08 -2.787,1.604 -4.387,1.444c-1.599,-0.167 -3.177,-0.587 -4.663,-1.274c-3.458,-1.596 -6.139,-4.501 -7.451,-8.074l-0.213,-0.628c-1.318,-3.571 -1.161,-7.523 0.434,-10.978c1.596,-3.457 4.501,-6.138 8.076,-7.452c0,0 1.024,-0.376 2.419,-0.889Zm-0,62.571c1.747,-0.642 3.697,-0.39 5.223,0.675c1.526,1.065 2.436,2.809 2.436,4.67c-0,6.167 -0,14.365 -0,19.166c-0,2.387 -1.489,4.521 -3.73,5.345c-6.156,2.262 -17.769,6.529 -17.769,6.529c-3.573,1.318 -7.522,1.161 -10.979,-0.435c-3.458,-1.595 -6.139,-4.5 -7.451,-8.073l-0.213,-0.628c-1.317,-3.574 -1.161,-7.523 0.435,-10.981c1.596,-3.458 4.5,-6.139 8.073,-7.451c0,0 14.613,-5.373 23.975,-8.815Zm38.828,62.661c-0.534,-1.72 -0.219,-3.592 0.849,-5.043c1.068,-1.45 2.762,-2.307 4.564,-2.307c6.511,-0.026 17.755,-0.026 28.822,-0.026c2.761,-0 5.123,1.98 5.606,4.698c0.483,2.718 -1.054,5.391 -3.645,6.341c-9.355,3.432 -17.266,6.334 -17.266,6.334c-3.573,1.318 -7.522,1.161 -10.979,-0.434c-3.456,-1.596 -6.137,-4.501 -7.451,-8.076l-0.213,-0.628c-0.105,-0.284 -0.2,-0.571 -0.286,-0.86Z" style="fill:#fff;"/></g></svg>
