<?xml version="1.0" encoding="UTF-8" standalone="no"?>
<!DOCTYPE svg PUBLIC "-//W3C//DTD SVG 1.1//EN" "http://www.w3.org/Graphics/SVG/1.1/DTD/svg11.dtd">
<svg width="100%" height="100%" viewBox="0 0 460 460" version="1.1" xmlns="http://www.w3.org/2000/svg" xmlns:xlink="http://www.w3.org/1999/xlink" xml:space="preserve" xmlns:serif="http://www.serif.com/" style="fill-rule:evenodd;clip-rule:evenodd;stroke-linejoin:round;stroke-miterlimit:2;">
    <g transform="matrix(1,0,0,1,-60,-58)">
        <g transform="matrix(0.954845,0,0,0.954845,70.385742,68.385742)">
            <circle cx="230" cy="230" r="223.125" style="fill:rgb(0,36,71);"/>
        </g>
        <g transform="matrix(0.983559,0,0,0.983559,4.768002,4.73512)">
            <path d="M343.058,89.985C452.418,119.288 517.318,231.698 488.015,341.058C458.712,450.418 346.302,515.318 236.942,486.015C127.582,456.712 62.682,344.302 91.985,234.942C121.288,125.582 233.698,60.682 343.058,89.985ZM376.985,248.756L424.133,248.756L424.133,196.492L376.985,196.492L376.985,248.756ZM354.856,399.952C356.56,398.388 358.788,397.521 361.101,397.521C366.972,397.508 376.985,397.508 376.985,397.508L376.985,248.756L350.096,248.756L350.096,196.492L302.949,196.492L302.949,220.531C302.949,223.114 301.238,225.384 298.755,226.096C298.402,226.165 298.059,226.275 297.72,226.4C297.72,226.4 290.57,229.024 284.642,231.199C282.866,231.851 280.884,231.594 279.333,230.511C277.782,229.428 276.858,227.656 276.858,225.765L276.858,196.492L270.222,196.492C268.299,196.492 266.502,195.537 265.426,193.943C264.007,191.854 261.872,189.11 260.02,188.255C256.938,186.833 253.417,186.693 250.233,187.867C250.233,187.867 224.214,197.449 210.805,202.387C209.028,203.041 207.045,202.786 205.492,201.703C203.94,200.62 203.015,198.847 203.015,196.954C203.015,196.662 203.015,196.492 203.015,196.492L187.074,196.492C184.284,196.492 181.89,194.502 181.382,191.759C180.873,189.016 182.393,186.3 184.997,185.299C218.988,172.238 270.6,152.406 270.6,152.406C273.787,151.234 276.375,148.844 277.797,145.762C279.221,142.68 279.361,139.159 278.187,135.974L277.997,135.414C276.824,132.228 274.434,129.639 271.354,128.216C268.271,126.793 264.75,126.653 261.564,127.829L245.834,133.632C238.851,136.192 231.112,132.619 228.534,125.642C226.758,120.79 222.358,117.382 217.214,116.88C129.074,154.493 84.404,253.321 114.404,344.333C144.404,435.345 239.086,488.239 332.316,466.069C337.722,462.991 340.131,456.473 338.026,450.621L337.836,450.061C336.664,446.874 334.274,444.285 331.192,442.861C328.111,441.438 324.589,441.298 321.405,442.473L273.05,460.247C269.865,461.422 266.344,461.282 263.262,459.86C260.18,458.436 257.79,455.847 256.618,452.66L256.343,451.95L256.361,452.04C255.181,448.859 255.314,445.339 256.728,442.256C258.144,439.172 260.728,436.778 263.908,435.598L350.811,402.43C352.348,401.845 353.707,400.995 354.856,399.952ZM159.72,249.113C160.361,248.877 161.038,248.756 161.721,248.756C168.203,248.756 203.015,248.756 203.015,248.756L203.015,237.202C203.015,234.777 204.527,232.608 206.803,231.77C210.72,230.327 216.947,228.034 221.921,226.201C223.697,225.547 225.68,225.803 227.233,226.885C228.785,227.968 229.711,229.741 229.711,231.634C229.711,235.339 229.711,239.615 229.711,242.967C229.711,244.502 229.101,245.975 228.015,247.061C226.929,248.146 225.457,248.756 223.922,248.756C216.07,248.756 203.015,248.756 203.015,248.756L203.015,257.113C203.015,259.541 201.5,261.711 199.22,262.548C185.672,267.52 140.486,284.102 140.486,284.102C137.301,285.277 133.779,285.137 130.699,283.714C127.618,282.291 125.228,279.702 124.056,276.516L123.866,275.956C122.693,272.771 122.833,269.25 124.253,266.168C125.677,263.085 128.267,260.695 131.453,259.525C131.453,259.525 154.655,250.978 159.72,249.113ZM195.228,292.788C197.004,292.135 198.987,292.391 200.539,293.474C202.09,294.556 203.015,296.329 203.015,298.221C203.015,302.909 203.015,308.622 203.015,312.667C203.015,314.398 202.241,316.038 200.905,317.138C199.569,318.238 197.811,318.682 196.112,318.349C195.142,318.148 194.19,317.839 193.276,317.417C190.193,315.994 187.803,313.404 186.633,310.219L186.443,309.659C185.268,306.475 185.408,302.952 186.83,299.872C188.253,296.79 190.843,294.4 194.03,293.228C194.03,293.228 194.501,293.055 195.228,292.788ZM195.228,348.572C197.004,347.919 198.987,348.175 200.538,349.258C202.09,350.34 203.015,352.113 203.015,354.005C203.015,359.144 203.015,365.515 203.015,369.573C203.015,372 201.501,374.17 199.222,375.007C193.636,377.06 183.848,380.656 183.848,380.656C180.663,381.831 177.142,381.691 174.06,380.268C170.977,378.846 168.587,376.256 167.417,373.071L167.227,372.511C166.053,369.325 166.192,365.804 167.615,362.721C169.038,359.638 171.627,357.248 174.812,356.078C174.812,356.078 186.88,351.641 195.228,348.572ZM231.057,404.849C230.441,403.175 230.682,401.306 231.702,399.843C232.723,398.38 234.394,397.508 236.177,397.508C241.229,397.508 249.119,397.508 257.311,397.508C260.118,397.508 262.52,399.521 263.011,402.285C263.502,405.048 261.94,407.766 259.305,408.732C252.713,411.15 247.679,412.997 247.679,412.997C244.494,414.172 240.973,414.032 237.891,412.61C234.81,411.187 232.42,408.597 231.248,405.41L231.058,404.85C231.058,404.85 231.058,404.849 231.057,404.849Z" style="fill:white;"/>
        </g>
    </g>
</svg>
