<?xml version="1.0" encoding="UTF-8" standalone="no"?>
<!DOCTYPE svg PUBLIC "-//W3C//DTD SVG 1.1//EN" "http://www.w3.org/Graphics/SVG/1.1/DTD/svg11.dtd">
<svg width="100%" height="100%" viewBox="0 0 460 460" version="1.1" xmlns="http://www.w3.org/2000/svg" xmlns:xlink="http://www.w3.org/1999/xlink" xml:space="preserve" xmlns:serif="http://www.serif.com/" style="fill-rule:evenodd;clip-rule:evenodd;stroke-linejoin:round;stroke-miterlimit:2;">
    <g transform="matrix(1.121672,0,0,1.121672,-95.284903,-93.041559)">
        <path d="M343.058,89.985C452.418,119.288 517.318,231.698 488.015,341.058C458.712,450.418 346.302,515.318 236.942,486.015C127.582,456.712 62.682,344.302 91.985,234.942C121.288,125.582 233.698,60.682 343.058,89.985ZM376.985,248.756L424.133,248.756L424.133,196.492L376.985,196.492L376.985,248.756ZM355.059,399.763C356.567,398.32 358.575,397.514 360.663,397.514C366.458,397.508 376.985,397.508 376.985,397.508L376.985,248.756L350.096,248.756L350.096,196.492L302.949,196.492L302.949,221.087C302.949,223.408 301.373,225.434 299.123,226.006C298.644,226.089 298.179,226.231 297.72,226.4C297.72,226.4 289.768,229.318 283.683,231.551C282.126,232.123 280.388,231.897 279.028,230.948C277.668,229.998 276.858,228.444 276.858,226.786L276.858,196.492L269.845,196.492C268.145,196.492 266.558,195.641 265.617,194.225C264.203,192.109 261.957,189.149 260.02,188.255C256.938,186.833 253.417,186.693 250.233,187.867C250.233,187.867 222.927,197.923 209.845,202.74C208.288,203.314 206.549,203.09 205.187,202.14C203.826,201.191 203.015,199.636 203.015,197.977C203.015,197.091 203.015,196.492 203.015,196.492L183.231,196.492C180.785,196.492 178.686,194.747 178.24,192.342C177.794,189.936 179.127,187.555 181.41,186.677C215.219,173.686 270.6,152.406 270.6,152.406C273.787,151.234 276.375,148.844 277.797,145.762C279.221,142.68 279.361,139.159 278.187,135.974L277.997,135.414C276.824,132.228 274.434,129.639 271.354,128.216C268.271,126.793 264.75,126.653 261.564,127.829L245.834,133.632C238.851,136.192 231.112,132.619 228.534,125.642C226.758,120.79 222.358,117.382 217.214,116.88C129.074,154.493 84.404,253.321 114.404,344.333C144.404,435.345 239.086,488.239 332.316,466.069C337.722,462.991 340.131,456.473 338.026,450.621L337.836,450.061C336.664,446.874 334.274,444.285 331.192,442.861C328.111,441.438 324.589,441.298 321.405,442.473L273.05,460.247C269.865,461.422 266.344,461.282 263.262,459.86C260.18,458.436 257.79,455.847 256.618,452.66L256.343,451.95L256.361,452.04C255.181,448.859 255.314,445.339 256.728,442.256C258.144,439.172 260.728,436.778 263.908,435.598L350.811,402.43C352.439,401.81 353.868,400.892 355.059,399.763ZM159.839,249.069C160.401,248.862 160.995,248.756 161.594,248.756C167.732,248.756 203.015,248.756 203.015,248.756L203.015,236.705C203.015,234.578 204.341,232.677 206.337,231.942C210.454,230.425 217.576,227.802 222.88,225.848C224.437,225.274 226.177,225.498 227.538,226.448C228.899,227.397 229.711,228.952 229.711,230.612C229.711,234.792 229.711,239.937 229.711,243.68C229.711,246.483 227.438,248.756 224.634,248.756C216.89,248.756 203.015,248.756 203.015,248.756L203.015,257.611C203.015,259.74 201.686,261.643 199.687,262.376C186.747,267.125 140.486,284.102 140.486,284.102C137.301,285.277 133.779,285.137 130.699,283.714C127.618,282.291 125.228,279.702 124.056,276.516L123.866,275.956C122.693,272.771 122.833,269.25 124.253,266.168C125.677,263.085 128.267,260.695 131.453,259.525C131.453,259.525 155.032,250.84 159.839,249.069ZM196.187,292.435C197.744,291.863 199.483,292.087 200.843,293.037C202.204,293.986 203.015,295.541 203.015,297.2L203.015,313.501C203.015,314.935 202.408,316.303 201.345,317.265C200.282,318.228 198.861,318.695 197.434,318.553C196.008,318.404 194.601,318.029 193.276,317.417C190.193,315.994 187.803,313.404 186.633,310.219L186.443,309.659C185.268,306.475 185.408,302.952 186.83,299.872C188.253,296.79 190.843,294.4 194.03,293.228C194.03,293.228 194.943,292.892 196.187,292.435ZM196.187,348.219C197.744,347.647 199.483,347.871 200.843,348.821C202.204,349.77 203.015,351.324 203.015,352.984C203.015,358.482 203.015,365.791 203.015,370.07C203.015,372.199 201.687,374.101 199.689,374.835C194.201,376.852 183.848,380.656 183.848,380.656C180.663,381.831 177.142,381.691 174.06,380.268C170.977,378.846 168.587,376.256 167.417,373.071L167.227,372.511C166.053,369.325 166.192,365.804 167.615,362.721C169.038,359.638 171.627,357.248 174.812,356.078C174.812,356.078 187.84,351.288 196.187,348.219ZM230.803,404.083C230.326,402.55 230.607,400.881 231.56,399.588C232.512,398.295 234.022,397.531 235.628,397.531C241.434,397.508 251.458,397.508 261.324,397.508C263.785,397.508 265.892,399.273 266.322,401.697C266.752,404.12 265.383,406.503 263.072,407.35C254.732,410.41 247.679,412.997 247.679,412.997C244.494,414.172 240.973,414.032 237.891,412.61C234.81,411.187 232.42,408.597 231.248,405.41L231.058,404.85C230.965,404.596 230.88,404.341 230.803,404.083Z"/>
    </g>
</svg>
